<?xml version="1.0" encoding="UTF-8" standalone="no"?>
<svg
   width="1em"
   height="1em"
   viewBox="0 0 24 24"
   version="1.1"
   id="svg1"
   sodipodi:docname="circle_loading.svg"
   inkscape:version="1.3.2 (091e20ef0f, 2023-11-25)"
   xmlns:inkscape="http://www.inkscape.org/namespaces/inkscape"
   xmlns:sodipodi="http://sodipodi.sourceforge.net/DTD/sodipodi-0.dtd"
   xmlns="http://www.w3.org/2000/svg"
   xmlns:svg="http://www.w3.org/2000/svg">
  <sodipodi:namedview
     id="namedview1"
     pagecolor="#ffffff"
     bordercolor="#000000"
     borderopacity="0.25"
     inkscape:showpageshadow="2"
     inkscape:pageopacity="0.0"
     inkscape:pagecheckerboard="0"
     inkscape:deskcolor="#d1d1d1"
     inkscape:zoom="8.3854167"
     inkscape:cx="31.24472"
     inkscape:cy="20.571429"
     inkscape:window-width="1920"
     inkscape:window-height="1011"
     inkscape:window-x="0"
     inkscape:window-y="0"
     inkscape:window-maximized="1"
     inkscape:current-layer="svg1" />
  <defs
     id="defs1" />
  <path
     id="circle2310"
     style="fill:#000000;fill-opacity:1;stroke-width:0;stroke-linecap:square;stroke:none"
     d="M 12 2 A 10 10 0 0 0 7.90625 2.8808594 L 9.2871094 5.9570312 C 10.110942 5.5912704 11.014917 5.40625 12 5.40625 C 13.840809 5.40625 15.400159 6.0446893 16.677734 7.3222656 C 17.878473 8.5230045 18.513722 9.9736148 18.585938 11.671875 C 18.591037 11.780701 18.59375 11.8901 18.59375 12 C 18.59375 13.021434 18.397171 13.956628 18.003906 14.804688 L 21.054688 16.228516 A 10 10 0 0 0 22 12 C 22 11.847393 21.996609 11.695509 21.990234 11.544922 A 10 10 0 0 0 21.972656 11.285156 C 21.969222 11.234204 21.967066 11.183529 21.962891 11.132812 A 10 10 0 0 0 21.923828 10.763672 A 10 10 0 0 0 21.158203 7.9824219 A 10 10 0 0 0 20.984375 7.6074219 A 10 10 0 0 0 20.794922 7.2402344 A 10 10 0 0 0 20.589844 6.8808594 A 10 10 0 0 0 20.373047 6.5332031 C 20.372557 6.532451 20.371583 6.532002 20.371094 6.53125 A 10 10 0 0 0 20.371094 6.5292969 A 10 10 0 0 0 20.140625 6.1914062 C 20.1401 6.1906679 20.139197 6.1901913 20.138672 6.1894531 A 10 10 0 0 0 20.138672 6.1875 A 10 10 0 0 0 18.851562 4.71875 C 18.808232 4.6779525 18.764714 4.6376326 18.720703 4.5976562 A 10 10 0 0 0 18.210938 4.1660156 C 18.187751 4.147679 18.165943 4.1275063 18.142578 4.109375 A 10 10 0 0 0 18.132812 4.1035156 A 10 10 0 0 0 17.8125 3.8613281 C 17.812066 3.8610199 17.810981 3.8616363 17.810547 3.8613281 A 10 10 0 0 0 17.808594 3.859375 A 10 10 0 0 0 17.470703 3.6289062 C 17.470244 3.6286078 17.469209 3.6292046 17.46875 3.6289062 A 10 10 0 0 0 17.466797 3.6269531 A 10 10 0 0 0 17.130859 3.4179688 C 17.126854 3.4155825 17.12315 3.4125376 17.119141 3.4101562 C 16.972841 3.323269 16.823572 3.240532 16.671875 3.1601562 A 10 10 0 0 0 16.462891 3.0527344 C 16.317087 2.9795754 16.168468 2.9090233 16.017578 2.8417969 A 10 10 0 0 0 16.009766 2.8378906 A 10 10 0 0 0 13.236328 2.0761719 A 10 10 0 0 0 12.867188 2.0371094 C 12.816471 2.0329191 12.765796 2.030794 12.714844 2.0273438 A 10 10 0 0 0 12.455078 2.0097656 C 12.304491 2.0033341 12.152607 2.0000735 12 2 z " />
</svg>
