<?xml version="1.0" encoding="UTF-8" standalone="no"?>
<svg
   width="1em"
   height="1em"
   viewBox="0 0 24 24"
   version="1.1"
   id="svg1"
   sodipodi:docname="circle_4.svg"
   inkscape:version="1.3.2 (091e20ef0f, 2023-11-25)"
   xmlns:inkscape="http://www.inkscape.org/namespaces/inkscape"
   xmlns:sodipodi="http://sodipodi.sourceforge.net/DTD/sodipodi-0.dtd"
   xmlns="http://www.w3.org/2000/svg"
   xmlns:svg="http://www.w3.org/2000/svg">
  <sodipodi:namedview
     id="namedview1"
     pagecolor="#ffffff"
     bordercolor="#000000"
     borderopacity="0.25"
     inkscape:showpageshadow="2"
     inkscape:pageopacity="0.0"
     inkscape:pagecheckerboard="0"
     inkscape:deskcolor="#d1d1d1"
     inkscape:zoom="11.85877"
     inkscape:cx="-13.745102"
     inkscape:cy="24.918267"
     inkscape:window-width="1920"
     inkscape:window-height="1011"
     inkscape:window-x="0"
     inkscape:window-y="0"
     inkscape:window-maximized="1"
     inkscape:current-layer="svg1" />
  <defs
     id="defs1" />
  <rect
     width="24"
     height="24"
     fill="none"
     id="rect1" />
  <path
     id="path1"
     d="M 12 2 C 11.308334 2.0003333 10.638281 2.0659324 9.9882812 2.1972656 C 9.6632324 2.262821 9.3419635 2.344943 9.0273438 2.4433594 C 8.712724 2.5417757 8.4037748 2.6557766 8.0996094 2.7871094 C 7.7954439 2.9184421 7.5010618 3.0619318 7.2167969 3.2167969 C 7.0746095 3.2941093 6.9360676 3.3738543 6.7988281 3.4570312 C 6.5243492 3.6233852 6.2585935 3.8023752 6.0039062 3.9921875 C 5.8765626 4.0870937 5.751302 4.1843855 5.6289062 4.2851562 C 5.3841148 4.4866977 5.150781 4.7007815 4.9257812 4.9257812 C 4.7700933 5.0815846 4.6210421 5.2429097 4.4765625 5.4082031 C 4.4522206 5.4359872 4.4283205 5.4641344 4.4042969 5.4921875 C 4.2620255 5.6587045 4.1233008 5.8279418 3.9921875 6.0039062 C 3.5177609 6.6406244 3.1154424 7.3391934 2.7871094 8.0996094 C 2.7229676 8.2481611 2.6637114 8.3977567 2.6074219 8.5488281 C 2.603318 8.5598328 2.5997654 8.5710134 2.5957031 8.5820312 C 2.5471992 8.7136991 2.5015441 8.8469019 2.4589844 8.9804688 C 2.4509061 9.0058031 2.4434115 9.0312385 2.4355469 9.0566406 C 2.3443953 9.3512602 2.267509 9.6493932 2.2050781 9.953125 C 2.1989248 9.9830026 2.1933752 10.013003 2.1875 10.042969 C 2.160071 10.183121 2.1346405 10.324733 2.1132812 10.466797 C 2.1124024 10.472641 2.1121967 10.478528 2.1113281 10.484375 C 2.0870189 10.648054 2.0650972 10.812315 2.0488281 10.978516 C 2.0159948 11.313932 2 11.654167 2 12 C 2.0003333 12.691666 2.0659324 13.361719 2.1972656 14.011719 C 2.262821 14.336768 2.344943 14.658036 2.4433594 14.972656 C 2.5417757 15.287276 2.6557766 15.596225 2.7871094 15.900391 C 2.9184421 16.204556 3.0619318 16.498938 3.2167969 16.783203 C 3.2941093 16.92539 3.3738543 17.063932 3.4570312 17.201172 C 3.6233852 17.475651 3.8023752 17.741407 3.9921875 17.996094 C 4.0871709 18.123369 4.1843488 18.2468 4.2851562 18.369141 C 4.2854821 18.369537 4.2848303 18.370698 4.2851562 18.371094 C 4.4866977 18.615885 4.7007815 18.849219 4.9257812 19.074219 C 5.0815846 19.229907 5.2429097 19.378958 5.4082031 19.523438 C 5.4359872 19.547779 5.4641344 19.571679 5.4921875 19.595703 C 5.6587045 19.737974 5.8279418 19.876699 6.0039062 20.007812 C 6.6406244 20.482239 7.3391934 20.884558 8.0996094 21.212891 C 8.2481611 21.277032 8.3977567 21.336289 8.5488281 21.392578 C 8.5598328 21.396682 8.5710134 21.400235 8.5820312 21.404297 C 8.7136991 21.452801 8.8469019 21.498456 8.9804688 21.541016 C 9.0058031 21.549094 9.0312385 21.556589 9.0566406 21.564453 C 9.3512601 21.655605 9.6493933 21.732491 9.953125 21.794922 C 9.9830026 21.801075 10.013003 21.806625 10.042969 21.8125 C 10.183121 21.839929 10.324733 21.865359 10.466797 21.886719 C 10.470736 21.887311 10.474575 21.888084 10.478516 21.888672 C 10.480424 21.888956 10.482467 21.888388 10.484375 21.888672 C 10.648054 21.912981 10.812315 21.934903 10.978516 21.951172 C 11.146224 21.967589 11.314063 21.980073 11.484375 21.988281 C 11.485026 21.988313 11.485677 21.98825 11.486328 21.988281 C 11.656005 21.996428 11.827738 22 12 22 C 12.172916 22.000083 12.345313 21.996417 12.515625 21.988281 C 12.685948 21.980097 12.853758 21.967547 13.021484 21.951172 C 13.524609 21.902109 14.016407 21.816391 14.496094 21.693359 C 14.815885 21.611339 15.130078 21.513333 15.439453 21.398438 C 15.594141 21.34099 15.748307 21.278557 15.900391 21.212891 C 16.077774 21.1363 16.251222 21.055258 16.421875 20.970703 C 16.470635 20.946524 16.518196 20.921316 16.566406 20.896484 C 16.675366 20.840416 16.782519 20.782046 16.888672 20.722656 C 16.95695 20.684417 17.02468 20.64508 17.091797 20.605469 C 17.198755 20.54239 17.304194 20.478678 17.408203 20.412109 C 17.453282 20.383257 17.498444 20.353721 17.542969 20.324219 C 17.696471 20.222481 17.849177 20.117342 17.996094 20.007812 C 18.123437 19.912873 18.248698 19.815635 18.371094 19.714844 C 18.615885 19.513261 18.849219 19.299219 19.074219 19.074219 C 19.229907 18.918415 19.378958 18.75709 19.523438 18.591797 C 19.547781 18.564013 19.571678 18.535866 19.595703 18.507812 C 19.737974 18.341296 19.876699 18.172058 20.007812 17.996094 C 20.197583 17.741407 20.376573 17.475651 20.542969 17.201172 C 20.647936 17.028023 20.746132 16.850947 20.841797 16.669922 C 20.879693 16.598356 20.916692 16.525926 20.953125 16.453125 C 21.043404 16.272381 21.131573 16.088722 21.212891 15.900391 C 21.475305 15.29264 21.671401 14.663009 21.802734 14.013672 C 21.802861 14.013046 21.802608 14.012345 21.802734 14.011719 C 21.934068 13.361719 22 12.691666 22 12 C 22 11.827084 21.996465 11.654698 21.988281 11.484375 C 21.980146 11.314063 21.967526 11.146224 21.951172 10.978516 C 21.902109 10.475391 21.816391 9.9835933 21.693359 9.5039062 C 21.611339 9.1841149 21.513333 8.8699216 21.398438 8.5605469 C 21.34099 8.4058595 21.278557 8.2516926 21.212891 8.0996094 C 21.015891 7.6433598 20.792656 7.2105465 20.542969 6.7988281 C 20.376511 6.5243492 20.197687 6.2585935 20.007812 6.0039062 C 19.913182 5.8769745 19.81529 5.7528752 19.714844 5.6308594 C 19.714532 5.6304808 19.715156 5.6292848 19.714844 5.6289062 C 19.513261 5.3841148 19.299219 5.150781 19.074219 4.9257812 C 18.918415 4.7700933 18.75709 4.6210421 18.591797 4.4765625 C 18.564013 4.4522186 18.535866 4.428322 18.507812 4.4042969 C 18.341296 4.2620255 18.172058 4.1233008 17.996094 3.9921875 C 17.741407 3.8024175 17.475651 3.6234266 17.201172 3.4570312 C 17.028023 3.3520641 16.850947 3.2538683 16.669922 3.1582031 C 16.598356 3.1203073 16.525926 3.0833076 16.453125 3.046875 C 16.272381 2.9565959 16.088722 2.8684271 15.900391 2.7871094 C 14.683725 2.2617766 13.383332 2 12 2 z M 12 4.6152344 L 12 12 L 12 19.384766 C 11.744581 19.384906 11.493818 19.373769 11.246094 19.349609 C 10.502923 19.276864 9.7930706 19.095677 9.1191406 18.804688 C 8.8944972 18.707692 8.6768236 18.600589 8.4667969 18.486328 C 8.3617839 18.429182 8.2595625 18.370064 8.1582031 18.308594 C 7.9554858 18.1857 7.7603661 18.054217 7.5722656 17.914062 C 7.2901144 17.703714 7.0246524 17.47387 6.7753906 17.224609 C 6.1111838 16.55991 5.5832994 15.779432 5.1953125 14.880859 C 4.8073253 13.982285 4.6152344 13.021666 4.6152344 12 C 4.6151114 11.744582 4.6262336 11.493818 4.6503906 11.246094 C 4.7231384 10.502923 4.9043222 9.7930714 5.1953125 9.1191406 C 5.2923093 8.8944966 5.3994113 8.6768233 5.5136719 8.4667969 C 5.5708174 8.3617837 5.6299371 8.2595621 5.6914062 8.1582031 C 5.8142987 7.9554855 5.9457814 7.7603662 6.0859375 7.5722656 C 6.2962872 7.2901149 6.5261281 7.0246529 6.7753906 6.7753906 C 7.4400893 6.1111843 8.2205657 5.5832995 9.1191406 5.1953125 C 10.017714 4.8073253 10.978332 4.6152344 12 4.6152344 z " />
</svg>
