<?xml version="1.0" encoding="UTF-8" standalone="no"?>
<svg
   width="1em"
   height="1em"
   viewBox="0 0 24 24"
   version="1.1"
   id="svg1"
   xmlns="http://www.w3.org/2000/svg"
   xmlns:svg="http://www.w3.org/2000/svg">
  <defs
     id="defs1" />
  <path
     id="rect1"
     d="M 12,2 C 10.616668,2 9.3162749,2.2617766 8.0996094,2.7871094 6.8829439,3.3124421 5.8257803,4.0264488 4.9257812,4.9257812 4.5882816,5.2632809 4.2769997,5.6218754 3.9921875,6.0039062 3.8024169,6.2585935 3.6234269,6.5243492 3.4570312,6.7988281 3.3738022,6.9360676 3.2941718,7.0746095 3.2167969,7.2167969 3.0620887,7.5011716 2.9184426,7.795443 2.7871094,8.0996094 2.3931098,9.0121085 2.147328,9.9722667 2.0488281,10.978516 2.0161198,11.313932 1.9998333,11.654167 2,12 c 0,1.383332 0.2617766,2.683725 0.7871094,3.900391 0.5253327,1.216665 1.2393394,2.273829 2.1386718,3.173828 0.3374997,0.337499 0.6960942,0.648781 1.078125,0.933593 0.2546873,0.189771 0.520443,0.368761 0.7949219,0.535157 0.1372395,0.08323 0.2757814,0.162859 0.4179688,0.240234 0.2843747,0.154708 0.5786461,0.298355 0.8828125,0.429688 0.9124991,0.393999 1.8726573,0.639781 2.8789066,0.738281 0.335416,0.03271 0.675651,0.049 1.021484,0.04883 1.383332,0 2.683725,-0.261777 3.900391,-0.787109 0.760416,-0.328333 1.458985,-0.730652 2.095703,-1.205079 0.127343,-0.09494 0.252604,-0.192177 0.375,-0.292968 0.244791,-0.201458 0.478125,-0.415792 0.703125,-0.640625 0.337499,-0.3375 0.648875,-0.696094 0.933593,-1.078125 0.189771,-0.254687 0.368761,-0.520443 0.535157,-0.794922 C 20.7925,16.789454 21.016141,16.35664 21.212891,15.900391 21.737557,14.683725 21.999333,13.383332 22,12 22,10.616668 21.738223,9.3162749 21.212891,8.0996094 20.687558,6.8829439 19.973551,5.8257803 19.074219,4.9257812 18.736719,4.5882816 18.378125,4.276906 17.996094,3.9921875 17.741407,3.8024169 17.475651,3.6234269 17.201172,3.4570312 16.789454,3.2075003 16.35664,2.9838592 15.900391,2.7871094 14.683725,2.2624432 13.383332,2.0006667 12,2 Z" />
</svg>
