<?xml version="1.0" encoding="UTF-8" standalone="no"?>
<svg
   width="1em"
   height="1em"
   viewBox="0 0 24 24"
   version="1.1"
   id="svg1"
   sodipodi:docname="circle_0.svg"
   inkscape:version="1.3.2 (091e20ef0f, 2023-11-25)"
   xmlns:inkscape="http://www.inkscape.org/namespaces/inkscape"
   xmlns:sodipodi="http://sodipodi.sourceforge.net/DTD/sodipodi-0.dtd"
   xmlns="http://www.w3.org/2000/svg"
   xmlns:svg="http://www.w3.org/2000/svg">
  <sodipodi:namedview
     id="namedview1"
     pagecolor="#ffffff"
     bordercolor="#000000"
     borderopacity="0.25"
     inkscape:showpageshadow="2"
     inkscape:pageopacity="0.0"
     inkscape:pagecheckerboard="0"
     inkscape:deskcolor="#d1d1d1"
     inkscape:zoom="23.71754"
     inkscape:cx="11.889935"
     inkscape:cy="13.007251"
     inkscape:window-width="1920"
     inkscape:window-height="1011"
     inkscape:window-x="0"
     inkscape:window-y="0"
     inkscape:window-maximized="1"
     inkscape:current-layer="svg1" />
  <defs
     id="defs1" />
  <path
     id="rect1"
     d="M 12 2 C 10.61667 2 9.3162725 2.2617776 8.0996094 2.7871094 C 6.8829463 3.3124409 5.8257787 4.0264506 4.9257812 4.9257812 C 4.5882824 5.2632803 4.2769991 5.6218762 3.9921875 6.0039062 C 3.8024173 6.2585931 3.6234267 6.5243498 3.4570312 6.7988281 C 3.3738024 6.9360674 3.2941716 7.0746097 3.2167969 7.2167969 C 3.0620889 7.501171 2.9184422 7.7954436 2.7871094 8.0996094 C 2.3931106 9.0121067 2.1473278 9.9722679 2.0488281 10.978516 C 2.01612 11.31393 1.9998333 11.654167 2 12 C 2 13.38333 2.2617776 14.683727 2.7871094 15.900391 C 3.3124409 17.117052 4.0264506 18.174222 4.9257812 19.074219 C 5.2632803 19.411716 5.6218762 19.723002 6.0039062 20.007812 C 6.2585931 20.197583 6.5243498 20.376573 6.7988281 20.542969 C 6.9360674 20.626199 7.0746097 20.705828 7.2167969 20.783203 C 7.501171 20.937911 7.7954436 21.081558 8.0996094 21.212891 C 9.0121067 21.606888 9.9722679 21.852672 10.978516 21.951172 C 11.31393 21.983882 11.654167 22.00017 12 22 C 13.38333 22 14.683727 21.738221 15.900391 21.212891 C 16.660805 20.884558 17.359376 20.482239 17.996094 20.007812 C 18.123437 19.912874 18.248698 19.815635 18.371094 19.714844 C 18.615885 19.513386 18.849219 19.299052 19.074219 19.074219 C 19.411716 18.736719 19.723096 18.378123 20.007812 17.996094 C 20.197583 17.741407 20.376573 17.475651 20.542969 17.201172 C 20.7925 16.789452 21.016141 16.356638 21.212891 15.900391 C 21.737555 14.683727 21.999333 13.38333 22 12 C 22 10.61667 21.738221 9.3162725 21.212891 8.0996094 C 20.687558 6.8829463 19.973549 5.8257787 19.074219 4.9257812 C 18.736719 4.5882824 18.378123 4.2769054 17.996094 3.9921875 C 17.741407 3.8024173 17.475651 3.6234267 17.201172 3.4570312 C 16.789454 3.2075009 16.356638 2.9838588 15.900391 2.7871094 C 14.683727 2.2624442 13.38333 2.0006667 12 2 z M 12 4.6152344 C 13.021668 4.6157269 13.982282 4.8078172 14.880859 5.1953125 C 15.217824 5.3406232 15.537721 5.5071137 15.841797 5.6914062 C 16.044516 5.8142988 16.239634 5.9457813 16.427734 6.0859375 C 16.709884 6.2962179 16.975347 6.5261285 17.224609 6.7753906 C 17.888815 7.4400902 18.4167 8.2205689 18.804688 9.1191406 C 19.192674 10.017715 19.384766 10.978331 19.384766 12 C 19.384274 13.021667 19.192182 13.982281 18.804688 14.880859 C 18.659377 15.217824 18.492887 15.537719 18.308594 15.841797 C 18.185701 16.044516 18.054219 16.239634 17.914062 16.427734 C 17.703784 16.709884 17.47387 16.975347 17.224609 17.224609 C 17.058434 17.39066 16.885871 17.548478 16.705078 17.697266 C 16.614682 17.771706 16.521784 17.843943 16.427734 17.914062 C 15.957482 18.264454 15.442468 18.562196 14.880859 18.804688 C 13.982282 19.192675 13.021668 19.384766 12 19.384766 C 11.744581 19.384906 11.493818 19.373769 11.246094 19.349609 C 10.502923 19.276861 9.7930712 19.095678 9.1191406 18.804688 C 8.894497 18.707692 8.6768238 18.600589 8.4667969 18.486328 C 8.3617838 18.429182 8.2595626 18.370064 8.1582031 18.308594 C 7.9554856 18.1857 7.7603663 18.054217 7.5722656 17.914062 C 7.2901141 17.703713 7.0246526 17.47387 6.7753906 17.224609 C 6.1111831 16.559909 5.5832998 15.779433 5.1953125 14.880859 C 4.8073249 13.982284 4.6152344 13.021667 4.6152344 12 C 4.6151114 11.744582 4.6262336 11.493818 4.6503906 11.246094 C 4.7231384 10.502923 4.9043219 9.793072 5.1953125 9.1191406 C 5.2923094 8.8944964 5.3994112 8.6768235 5.5136719 8.4667969 C 5.5708175 8.3617836 5.629937 8.2595622 5.6914062 8.1582031 C 5.8142988 7.9554853 5.9457813 7.7603664 6.0859375 7.5722656 C 6.2962874 7.2901146 6.5261278 7.0246531 6.7753906 6.7753906 C 7.4400899 6.1111836 8.2205648 5.5832999 9.1191406 5.1953125 C 10.017715 4.8073249 10.978331 4.6152344 12 4.6152344 z " />
</svg>
