<?xml version="1.0" encoding="UTF-8" standalone="no"?>
<!-- Created with Inkscape (http://www.inkscape.org/) -->

<svg
   width="24"
   height="24"
   viewBox="0 0 6.3499999 6.35"
   version="1.1"
   id="svg318"
   inkscape:version="1.2.2 (b0a8486541, 2022-12-01)"
   sodipodi:docname="info-outline-big.svg"
   xmlns:inkscape="http://www.inkscape.org/namespaces/inkscape"
   xmlns:sodipodi="http://sodipodi.sourceforge.net/DTD/sodipodi-0.dtd"
   xmlns="http://www.w3.org/2000/svg"
   xmlns:svg="http://www.w3.org/2000/svg">
  <sodipodi:namedview
     id="namedview320"
     pagecolor="#ffffff"
     bordercolor="#000000"
     borderopacity="0.25"
     inkscape:showpageshadow="2"
     inkscape:pageopacity="0.0"
     inkscape:pagecheckerboard="0"
     inkscape:deskcolor="#d1d1d1"
     inkscape:document-units="mm"
     showgrid="false"
     inkscape:zoom="31.526644"
     inkscape:cx="10.863827"
     inkscape:cy="11.577509"
     inkscape:window-width="1920"
     inkscape:window-height="1011"
     inkscape:window-x="0"
     inkscape:window-y="0"
     inkscape:window-maximized="1"
     inkscape:current-layer="layer1" />
  <defs
     id="defs315" />
  <g
     inkscape:label="Layer 1"
     inkscape:groupmode="layer"
     id="layer1">
    <path
       fill="currentColor"
       d="m 3.175,0.551 c -1.4484481,0 -2.62399998,1.175552 -2.62399998,2.624 0,1.4484479 1.17555188,2.624 2.62399998,2.624 1.4484483,0 2.624,-1.1755521 2.624,-2.624 0,-1.448448 -1.1755517,-2.624 -2.624,-2.624 z m 0,4.7232 c -1.1571841,0 -2.0992001,-0.9420161 -2.0992001,-2.0992 0,-1.157184 0.942016,-2.0992001 2.0992001,-2.0992001 1.157184,0 2.0991997,0.9420161 2.0991997,2.0992001 0,1.1571839 -0.9420157,2.0992 -2.0991997,2.0992 z"
       id="path2-6"
       style="stroke-width:0.2624"
       sodipodi:nodetypes="ssssssssss" />
    <path
       fill="currentColor"
       d="m 3.1750001,0.72028273 c -1.3550043,0 -2.45471729,1.09971347 -2.45471729,2.45471737 0,1.355004 1.09971299,2.4547172 2.45471729,2.4547172 1.355004,0 2.4547171,-1.0997132 2.4547171,-2.4547173 0,-1.3550038 -1.099713,-2.45471727 -2.4547171,-2.45471727 z m 0,4.41849127 c -1.0825304,0 -1.963774,-0.8812436 -1.963774,-1.9637739 0,-1.0825302 0.8812436,-1.9637738 1.963774,-1.9637738 1.0825301,0 1.9637734,0.8812436 1.9637734,1.9637738 0,1.0825302 -0.8812433,1.9637739 -1.9637734,1.9637739 z"
       id="path2-6-3"
       style="stroke-width:0.245472"
       sodipodi:nodetypes="ssssssssss" />
    <path
       d="M 2.9147528,2.1260818 H 3.4352472 V 2.5456492 H 2.9147528 Z m 0,1.0360985 H 3.4352472 V 4.2239182 H 2.9147528 Z"
       style="fill:currentColor;stroke:#000000;stroke-width:0.329506;stroke-dasharray:none;stroke-opacity:1"
       id="path446"
       sodipodi:nodetypes="cccccccccc" />
  </g>
</svg>
