<?xml version="1.0" encoding="UTF-8" standalone="no"?>
<svg
   width="20"
   height="20"
   preserveAspectRatio="xMidYMid meet"
   version="1.1"
   id="svg2"
   xmlns="http://www.w3.org/2000/svg"
   xmlns:svg="http://www.w3.org/2000/svg">
  <defs
     id="defs2" />
  <path
     fill="currentColor"
     d="M 16.806418,8.4874624 H 10.491574 A 4.5300494,4.5300494 0 0 0 6.2186568,5.4623877 c -2.5032493,0 -4.5376121,2.0343628 -4.5376121,4.5376123 0,2.503249 2.0343628,4.537612 4.5376121,4.537612 a 4.5300494,4.5300494 0 0 0 4.2729172,-3.025075 h 0.264695 l 1.512537,1.512538 1.512537,-1.512538 1.512537,1.512538 3.025075,-3.0553258 z M 6.2186568,12.268806 c -1.2478433,0 -2.2688061,-1.020963 -2.2688061,-2.268806 0,-1.2478435 1.0209628,-2.2688062 2.2688061,-2.2688062 1.2478433,0 2.2688061,1.0209627 2.2688061,2.2688062 0,1.247843 -1.0209628,2.268806 -2.2688061,2.268806"
     id="path1"
     style="stroke-width:0.756269" />
</svg>
