<?xml version="1.0" encoding="UTF-8" standalone="no"?>
<svg
   width="1em"
   height="1em"
   viewBox="0 0 24 24"
   version="1.1"
   id="svg6"
   sodipodi:docname="mask.svg"
   inkscape:version="1.2.2 (b0a8486541, 2022-12-01)"
   xmlns:inkscape="http://www.inkscape.org/namespaces/inkscape"
   xmlns:sodipodi="http://sodipodi.sourceforge.net/DTD/sodipodi-0.dtd"
   xmlns="http://www.w3.org/2000/svg"
   xmlns:svg="http://www.w3.org/2000/svg">
  <defs
     id="defs10" />
  <sodipodi:namedview
     id="namedview8"
     pagecolor="#ffffff"
     bordercolor="#000000"
     borderopacity="0.25"
     inkscape:showpageshadow="2"
     inkscape:pageopacity="0.0"
     inkscape:pagecheckerboard="0"
     inkscape:deskcolor="#d1d1d1"
     showgrid="false"
     inkscape:zoom="32.583333"
     inkscape:cx="12.015345"
     inkscape:cy="12"
     inkscape:window-width="1920"
     inkscape:window-height="1011"
     inkscape:window-x="0"
     inkscape:window-y="0"
     inkscape:window-maximized="1"
     inkscape:current-layer="svg6" />
  <path
     fill="currentColor"
     d="M 16.632151,9.9560482 C 15.265486,9.8230099 14.043952,10.645428 13.765781,12 c 0,0.411209 1.632743,0.955457 3.132446,0.955457 1.499704,0 2.854276,-0.955457 2.854276,-1.221534 0,-0.278171 -0.943362,-1.632742 -3.120352,-1.7778748 m -9.2522078,0 C 5.2029531,10.101181 4.2474964,11.322714 4.2474964,11.721829 c 0,0.278171 1.4876098,1.233628 2.8542758,1.233628 1.3666663,0 3.1324468,-0.544248 3.1324468,-0.955457 C 9.9560485,10.645428 8.6014765,9.8230099 7.3799432,9.9560482 M 17.986722,17.442475 c -2.310028,0 -3.809731,-2.721238 -5.986722,-2.721238 -2.1769905,0 -3.8097325,2.721238 -5.9867228,2.721238 -2.8542759,0 -4.8982277,-2.588199 -4.8982277,-7.208256 0,-2.8542758 0.8224185,-3.6766942 4.4870185,-3.6766942 3.6645995,0 4.632152,1.4997042 6.397932,1.4997042 1.765781,0 2.854275,-1.4997042 6.397931,-1.4997042 3.543658,0 4.48702,0.9554567 4.48702,3.6766942 0,4.620057 -2.043953,7.208256 -4.898229,7.208256 z"
     id="path4"
     style="stroke-width:1.20944" />
</svg>
