<?xml version="1.0" encoding="UTF-8" standalone="no"?>
<svg
   viewBox="0 0 24 24"
   version="1.1"
   id="svg12918"
   sodipodi:docname="star-outline-big.svg"
   inkscape:version="1.2.2 (b0a8486541, 2022-12-01)"
   xmlns:inkscape="http://www.inkscape.org/namespaces/inkscape"
   xmlns:sodipodi="http://sodipodi.sourceforge.net/DTD/sodipodi-0.dtd"
   xmlns="http://www.w3.org/2000/svg"
   xmlns:svg="http://www.w3.org/2000/svg">
  <defs
     id="defs12922" />
  <sodipodi:namedview
     id="namedview12920"
     pagecolor="#ffffff"
     bordercolor="#000000"
     borderopacity="0.25"
     inkscape:showpageshadow="2"
     inkscape:pageopacity="0.0"
     inkscape:pagecheckerboard="0"
     inkscape:deskcolor="#d1d1d1"
     showgrid="false"
     inkscape:zoom="11.519948"
     inkscape:cx="11.067758"
     inkscape:cy="17.795219"
     inkscape:window-width="1920"
     inkscape:window-height="1011"
     inkscape:window-x="0"
     inkscape:window-y="0"
     inkscape:window-maximized="1"
     inkscape:current-layer="svg12918" />
  <path
     id="path12916"
     d="M 12 2 L 9.1894531 8.6308594 L 2 9.2402344 L 7.4492188 13.970703 L 5.8203125 21 L 12 17.269531 L 18.179688 21 L 16.539062 13.970703 L 22 9.2402344 L 14.810547 8.6308594 L 12 2 z M 12 7.2832031 L 13.230469 10.431641 L 16.378906 10.720703 L 13.992188 12.964844 L 14.703125 16.302734 L 12 14.533203 L 9.296875 16.302734 L 10.007812 12.964844 L 7.6210938 10.720703 L 10.769531 10.431641 L 12 7.2832031 z " />
  <path
     id="path12916-7"
     d="M 12,2.5656671 9.3112636,8.9091417 2.433405,9.492106 7.6464519,14.017553 6.0881432,20.742197 12,17.173408 l 5.911857,3.568789 -1.56952,-6.724644 5.224258,-4.525447 -6.877859,-0.5829643 z m 0,5.0542264 1.17714,3.0119825 3.011982,0.276534 -2.283277,2.146879 0.680125,3.193224 L 12,14.555674 9.4140298,16.248513 10.094154,13.055289 7.8108777,10.90841 10.82286,10.631876 Z"
     style="stroke-width:0.956659" />
</svg>
