<?xml version="1.0" encoding="UTF-8" standalone="no"?>
<svg
   viewBox="0 0 24 24"
   width="24"
   height="24"
   version="1.1"
   id="svg2450"
   sodipodi:docname="text_2.svg"
   inkscape:version="1.3.2 (091e20ef0f, 2023-11-25)"
   xmlns:inkscape="http://www.inkscape.org/namespaces/inkscape"
   xmlns:sodipodi="http://sodipodi.sourceforge.net/DTD/sodipodi-0.dtd"
   xmlns="http://www.w3.org/2000/svg"
   xmlns:svg="http://www.w3.org/2000/svg">
  <defs
     id="defs2454" />
  <sodipodi:namedview
     id="namedview2452"
     pagecolor="#ffffff"
     bordercolor="#000000"
     borderopacity="0.25"
     inkscape:showpageshadow="2"
     inkscape:pageopacity="0.0"
     inkscape:pagecheckerboard="0"
     inkscape:deskcolor="#d1d1d1"
     showgrid="false"
     inkscape:zoom="23.039896"
     inkscape:cx="13.585131"
     inkscape:cy="9.9175793"
     inkscape:window-width="1920"
     inkscape:window-height="1011"
     inkscape:window-x="0"
     inkscape:window-y="0"
     inkscape:window-maximized="1"
     inkscape:current-layer="svg2450" />
  <path
     fill="none"
     d="M0 0h24v24H0z"
     id="path2446" />
  <g
     id="g5582"
     transform="matrix(0.9492253,0,0,0.9492253,-367.69012,-367.69012)"
     style="stroke:#000000;stroke-width:1.5;stroke-dasharray:none;stroke-opacity:1">
    <title
       id="title5576">Layer 1</title>
    <g
       id="g5580"
       style="stroke:#000000;stroke-width:1.5;stroke-dasharray:none;stroke-opacity:1">
      <path
         d="m 392,406 h 6.10698 c 0.55,0 1,-0.45 1,-1 0,-0.55 -0.45,-1 -1,-1 H 392 c -0.55,0 -1,0.45 -1,1 0,0.55 0.45,1 1,1 z m -1,-11 c 0,0.55 0.45,1 1,1 h 15.99956 c 0.55,0 1,-0.45 1,-1 0,-0.55 -0.44979,-1 -0.99979,-1 H 392 c -0.55,0 -1,0.45 -1,1 z m 1,6 h 15.99956 c 0.55,0 1,-0.45 1,-1 0,-0.55 -0.45,-1 -1,-1 H 392 c -0.55,0 -1,0.45 -1,1 0,0.55 0.45,1 1,1 z"
         fill="currentColor"
         id="path5578"
         style="stroke:#000000;stroke-width:1.5;stroke-dasharray:none;stroke-opacity:1"
         sodipodi:nodetypes="sssssssssssssssssssss" />
    </g>
  </g>
</svg>
