<?xml version="1.0" encoding="UTF-8" standalone="no"?>
<svg
   height="16"
   width="16"
   version="1.1"
   viewBox="0 0 16 16"
   data-name="Layer 2"
   id="Layer_2"
   sodipodi:docname="translate.svg"
   inkscape:version="1.3.2 (091e20ef0f, 2023-11-25)"
   xmlns:inkscape="http://www.inkscape.org/namespaces/inkscape"
   xmlns:sodipodi="http://sodipodi.sourceforge.net/DTD/sodipodi-0.dtd"
   xmlns="http://www.w3.org/2000/svg"
   xmlns:svg="http://www.w3.org/2000/svg"
   xmlns:rdf="http://www.w3.org/1999/02/22-rdf-syntax-ns#"
   xmlns:cc="http://creativecommons.org/ns#"
   xmlns:dc="http://purl.org/dc/elements/1.1/">
  <sodipodi:namedview
     id="namedview5315"
     pagecolor="#ffffff"
     bordercolor="#000000"
     borderopacity="0.25"
     inkscape:showpageshadow="2"
     inkscape:pageopacity="0.0"
     inkscape:pagecheckerboard="0"
     inkscape:deskcolor="#d1d1d1"
     showgrid="false"
     inkscape:zoom="17.279922"
     inkscape:cx="13.252375"
     inkscape:cy="3.3854319"
     inkscape:window-width="1920"
     inkscape:window-height="1011"
     inkscape:window-x="0"
     inkscape:window-y="0"
     inkscape:window-maximized="1"
     inkscape:current-layer="Layer_2" />
  <metadata
     id="metadata25">
    <rdf:RDF>
      <cc:Work>
        <dc:format>image/svg+xml</dc:format>
        <dc:type
           rdf:resource="http://purl.org/dc/dcmitype/StillImage" />
        <dc:title />
        <dc:creator>
          <cc:Agent>
            <dc:title>Andrei Rudenko</dc:title>
          </cc:Agent>
        </dc:creator>
        <dc:date>2021</dc:date>
        <cc:license
           rdf:resource="http://creativecommons.org/licenses/by-sa/4.0/" />
      </cc:Work>
      <cc:License
         rdf:about="http://creativecommons.org/licenses/by-sa/4.0/">
        <cc:permits
           rdf:resource="http://creativecommons.org/ns#Reproduction" />
        <cc:permits
           rdf:resource="http://creativecommons.org/ns#Distribution" />
        <cc:requires
           rdf:resource="http://creativecommons.org/ns#Notice" />
        <cc:requires
           rdf:resource="http://creativecommons.org/ns#Attribution" />
        <cc:permits
           rdf:resource="http://creativecommons.org/ns#DerivativeWorks" />
        <cc:requires
           rdf:resource="http://creativecommons.org/ns#ShareAlike" />
      </cc:License>
    </rdf:RDF>
  </metadata>
  <defs
     id="defs4">
    <style
       id="style2">.cls-1,.cls-2{fill:#cacaca}.cls-2{fill-rule:evenodd}</style>
  </defs>
  <g
     id="g7665"
     transform="matrix(0.84297505,0,0,0.84297505,1.2561996,1.2561996)">
    <path
       id="rect6"
       style="stroke-width:0.5;fill:#000000;fill-opacity:1"
       class="cls-1"
       d="M 8 -0.00040360032 L 4.999559 3.0000374 L 6.9990807 3.0000374 L 6.9990807 4.5848263 A 3.5588242 3.5588242 0 0 1 8 4.4411758 A 3.5588242 3.5588242 0 0 1 9.0009193 4.5848263 L 9.0009193 3.0000374 L 11.000441 3.0000374 L 8 -0.00040360032 z M 3.0000374 4.999559 L -0.00040360032 8 L 3.0000374 11.000441 L 3.0000374 9.0009193 L 4.5848263 9.0009193 A 3.5588242 3.5588242 0 0 1 4.4411758 8 A 3.5588242 3.5588242 0 0 1 4.5848263 6.9990807 L 3.0000374 6.9990807 L 3.0000374 4.999559 z M 12.999963 4.999559 L 12.999963 6.9990807 L 11.415174 6.9990807 A 3.5588242 3.5588242 0 0 1 11.558824 8 A 3.5588242 3.5588242 0 0 1 11.415174 9.0009193 L 12.999963 9.0009193 L 12.999963 11.000441 L 16.000404 8 L 12.999963 4.999559 z M 6.9990807 11.415174 L 6.9990807 12.999963 L 4.999559 12.999963 L 8 16.000404 L 11.000441 12.999963 L 9.0009193 12.999963 L 9.0009193 11.415174 A 3.5588242 3.5588242 0 0 1 8 11.558824 A 3.5588242 3.5588242 0 0 1 6.9990807 11.415174 z " />
  </g>
  <circle
     style="fill:#000000;stroke-width:11.2088"
     id="path1-3"
     cx="8"
     cy="8"
     r="1.5" />
</svg>
