<?xml version="1.0" encoding="UTF-8" standalone="no"?>
<svg
   width="1em"
   height="1em"
   preserveAspectRatio="xMidYMid meet"
   viewBox="0 0 24 24"
   style="-ms-transform: rotate(360deg); -webkit-transform: rotate(360deg); transform: rotate(360deg);"
   version="1.1"
   id="svg6"
   sodipodi:docname="warning.svg"
   inkscape:version="1.3 (0e150ed6c4, 2023-07-21)"
   xmlns:inkscape="http://www.inkscape.org/namespaces/inkscape"
   xmlns:sodipodi="http://sodipodi.sourceforge.net/DTD/sodipodi-0.dtd"
   xmlns="http://www.w3.org/2000/svg"
   xmlns:svg="http://www.w3.org/2000/svg">
  <defs
     id="defs10" />
  <sodipodi:namedview
     id="namedview8"
     pagecolor="#ffffff"
     bordercolor="#000000"
     borderopacity="0.25"
     inkscape:showpageshadow="2"
     inkscape:pageopacity="0.0"
     inkscape:pagecheckerboard="0"
     inkscape:deskcolor="#d1d1d1"
     showgrid="false"
     inkscape:zoom="23.039896"
     inkscape:cx="2.3220591"
     inkscape:cy="11.52349"
     inkscape:window-width="1920"
     inkscape:window-height="1011"
     inkscape:window-x="0"
     inkscape:window-y="0"
     inkscape:window-maximized="1"
     inkscape:current-layer="svg6" />
  <path
     fill="currentColor"
     d="M 21.869022,17.993063 14.109719,3.7012871 a 2.3899292,2.3899292 0 0 0 -4.1983092,0 L 2.1441404,17.993063 a 2.3899292,2.3899292 0 0 0 2.1031377,3.553028 H 19.765884 a 2.3899292,2.3899292 0 0 0 2.103138,-3.529129 z M 10.819582,7.7960328 a 1.194965,1.194965 0 0 1 2.38993,0 v 5.4888712 a 1.194965,1.194965 0 1 1 -2.38993,0 z M 12.046413,18.55868 a 1.3702261,1.3702261 0 1 1 1.370227,-1.370225 1.3702261,1.3702261 0 0 1 -1.370227,1.370225 z"
     class="clr-i-solid clr-i-solid-path-1"
     id="path1"
     style="stroke-width:0.796643" />
</svg>
